# xmcd
# 
# Track frame offsets:
#     150
#     17863
#     34513
#     53063
#     68095
#     81618
#     104398
#     122275
#     139035
#     153203
#     174125
#     193405
#     218635
# 
# Disc length: 3211
# 
# Revision: 0
# Processed by: cddbd v1.5.2PL0 Copyright (c) Steve Scherf et al.
# Submitted via: fre:ac v1.0.31
# 
DISCID=a80c890d
DTITLE=Various Artist - Celtic Christmas
DYEAR=1995
DGENRE=Other
TTITLE0=When The Snow Melts - Phil Cunningham and Manus Lunny
TTITLE1=Solus - Triona Ni Dhomhnill
TTITLE2=On A Cold Winters Day/Christmas Eve - Kevin Burk and Michael O'Domhnaill
TTITLE3=The Winter's End - Liam O'Flynn
TTITLE4=Ciara - Luka Bloom
TTITLE5=Nollaig Na Mban- Cormac Breatnach
TTITLE6=Third Carol For, Christmas Day - Maighread Ni Dhomhnaill and Donal Lunny
TTITLE7=Snow On High Ground - Nightnoise
TTITLE8=Galician Carol - Carlos Nunez
TTITLE9=Soillse Na Nollag - Johnny Cunningham
TTITLE10=King Holly, King Oak - Johnny Cunningham
TTITLE11=Snow - Loreena McKennitt
TTITLE12=We Follow A Star - Jeff Johnson and Brian Dunning
EXTD=Christmas Holiday
EXTT0=
EXTT1=
EXTT2=
EXTT3=
EXTT4=
EXTT5=
EXTT6=
EXTT7=
EXTT8=
EXTT9=
EXTT10=
EXTT11=
EXTT12=
PLAYORDER=
